<?xml version="1.0" encoding="utf-8"?>
<!-- Generator: Adobe Illustrator 28.1.0, SVG Export Plug-In . SVG Version: 6.00 Build 0)  -->
<svg version="1.1" id="Logo" xmlns="http://www.w3.org/2000/svg" xmlns:xlink="http://www.w3.org/1999/xlink" x="0px" y="0px"
	 viewBox="0 0 174.6 19.8" style="enable-background:new 0 0 174.6 19.8;" xml:space="preserve">
<style type="text/css">
	.st0{fill:#FFFFFF;}
</style>
<g>
	<g>
		<path class="st0" d="M50.1,0c-4.3,0-7.3,2.4-7.3,6V6c0,3.9,3.2,5,7.1,5.9c2.5,0.6,3.3,1,3.3,1.9v0.1c0,0.9-0.8,1.4-2.3,1.4
			c-2.2,0-4.3-0.8-6.2-2.2L42,16.4c2.2,2,5.4,3,8.8,3c4.7,0,7.6-2.3,7.6-6.1v-0.1c0-3.6-2.8-4.9-7-5.8c-2.7-0.6-3.4-1-3.4-2V5.5
			c0-0.7,0.5-1.3,2-1.3c1.7,0,3.6,0.6,5.3,1.8l2.5-3.5C55.7,0.8,53.2,0,50.1,0"/>
		<polygon class="st0" points="40,0.4 34.9,0.4 30.2,8.1 25.5,0.4 20.4,0.4 20.4,19 24.9,19 24.9,7.3 30.1,15.3 35.4,7.3 35.4,19 
			40,19 		"/>
		<g>
			<path class="st0" d="M10.2,0C7.1,0.1,5.6,1.8,5.1,2.5c0,0-0.2,0.2-0.2,0.2C4,4.3,3.5,6.2,3.6,8.2l0,0.1c0.3,4.9,4.2,8.5,9.1,8.5
				c0.2,0,0.4,0,0.6,0c2-0.1,3.6-0.6,4.9-1.5l-4-2.8c-1.1,1.4-2.3,2.3-4.3,2.3c-2.7,0-4.6-2.2-4.6-5V9.7c0-2.7,1.9-4.9,4.6-4.9
				c1.8,0,3.1,0.9,4.2,2.2l4-3c-1.2-1.6-2.7-2.8-4.8-3.4c0,0-0.1,0-0.1,0c-0.3-0.1-0.5-0.1-0.8-0.2C11.8,0.1,11,0,10.2,0"/>
			<g>
				<path class="st0" d="M2.2,7.9c0-1,0.2-2,0.5-3C3,3.8,3.5,2.7,4.1,1.8l0,0C1.6,3.6,0,6.4,0,9.7v0.1c0,5.6,4.4,9.7,9.8,9.7
					c2.7,0,4.7-0.7,6.2-1.9l0,0c-0.8,0.2-1.7,0.3-2.6,0.4c-0.2,0-0.5,0-0.7,0c-1.3,0-2.5-0.2-3.7-0.6C5.1,16,2.2,12.3,2.2,7.9"/>
			</g>
		</g>
	</g>
	<g>
		<path class="st0" d="M67.9,0.4h1.5L75,16.8l5.5-16.4h1.5l5.5,16.4l5.6-16.4h1.5L88.4,19H87L81.3,2.4L75.7,19h-1.4L67.9,0.4z"/>
		<path class="st0" d="M96.9,1.8c-0.2-0.2-0.3-0.4-0.3-0.7s0.1-0.5,0.3-0.7c0.2-0.2,0.4-0.3,0.7-0.3c0.3,0,0.5,0.1,0.7,0.3
			s0.3,0.4,0.3,0.7c0,0.3-0.1,0.5-0.3,0.7s-0.4,0.3-0.7,0.3C97.3,2.1,97.1,2,96.9,1.8z M97,5h1.4v14H97V5z"/>
		<path class="st0" d="M104,18.8c-1-0.4-2-0.9-2.8-1.5l0.8-1c0.8,0.6,1.7,1,2.6,1.4c0.9,0.3,1.7,0.5,2.6,0.5c1,0,1.9-0.2,2.6-0.7
			c0.7-0.5,1.1-1.1,1.1-1.7c0-0.8-0.3-1.4-0.9-1.8c-0.6-0.5-1.6-0.9-3-1.3c-1.7-0.5-2.9-1.1-3.7-1.7c-0.7-0.6-1.1-1.4-1.1-2.3
			c0-0.7,0.2-1.3,0.6-1.9c0.4-0.6,1-1,1.7-1.4c0.7-0.3,1.5-0.5,2.4-0.5c0.8,0,1.7,0.1,2.6,0.4s1.7,0.7,2.5,1.2l-0.7,1
			c-0.7-0.4-1.4-0.8-2.2-1c-0.8-0.2-1.5-0.4-2.2-0.4c-1,0-1.8,0.2-2.4,0.7c-0.7,0.5-1,1-1,1.7c0,0.7,0.3,1.2,0.9,1.7
			c0.6,0.4,1.7,0.9,3.1,1.3c1.6,0.5,2.8,1,3.5,1.7c0.7,0.6,1.1,1.5,1.1,2.5c0,0.7-0.2,1.4-0.7,2c-0.5,0.6-1.1,1.1-1.8,1.4
			c-0.8,0.3-1.6,0.5-2.5,0.5C106.1,19.4,105,19.2,104,18.8z"/>
		<path class="st0" d="M122.3,18.5c-0.8,0.6-1.7,0.9-2.6,0.9c-0.9,0-1.6-0.3-2.2-1c-0.6-0.7-0.9-1.5-0.9-2.6V6.3h-2.4V5h2.4V1.2h1.4
			V5h3.7v1.2h-3.7v9.5c0,0.7,0.2,1.2,0.5,1.7c0.3,0.4,0.8,0.7,1.3,0.7c0.3,0,0.7-0.1,1-0.2c0.3-0.1,0.6-0.3,0.9-0.5L122.3,18.5z"/>
		<path class="st0" d="M128.2,5.7c1-0.6,2.2-0.9,3.5-0.9V6c-1.1,0-2,0.2-2.9,0.7c-0.8,0.5-1.5,1.1-2,1.9c-0.5,0.8-0.7,1.7-0.7,2.7
			V19h-1.4V5h1.4v3.1C126.5,7.1,127.2,6.3,128.2,5.7z"/>
		<path class="st0" d="M143.1,6.3c1,1.1,1.5,2.5,1.5,4.2V19h-1.4v-2.2c-0.5,0.8-1.3,1.4-2.3,1.9c-1,0.5-2.1,0.7-3.1,0.7
			c-1.5,0-2.7-0.4-3.7-1.2c-1-0.8-1.4-1.9-1.4-3.2c0-0.9,0.2-1.7,0.7-2.4s1.2-1.2,2-1.6c0.9-0.4,1.8-0.6,2.9-0.6
			c1.5,0,3.1,0.3,4.9,0.9v-0.6c0-1.3-0.3-2.3-1-3.2s-1.8-1.3-3.3-1.3c-1.4,0-2.8,0.4-4.3,1.2L134,6.1c0.8-0.5,1.7-0.8,2.6-1
			c0.9-0.2,1.7-0.3,2.4-0.3C140.7,4.7,142.1,5.2,143.1,6.3z M140.1,17.7c0.7-0.3,1.4-0.7,2-1.2c0.6-0.5,0.9-1.2,1.1-1.9v-2.4
			c-1.7-0.6-3.3-0.8-4.7-0.8c-1.3,0-2.4,0.3-3.3,0.9c-0.9,0.6-1.3,1.4-1.3,2.4c0,1,0.4,1.7,1.2,2.4c0.8,0.6,1.7,0.9,2.9,0.9
			C138.7,18.1,139.4,18,140.1,17.7z"/>
		<path class="st0" d="M156.3,5.4c0.8,0.4,1.5,1.1,1.9,1.9c0.5,0.8,0.7,1.7,0.7,2.7V19h-1.4v-8.9c0-1.2-0.4-2.2-1.2-3
			s-1.8-1.2-3-1.2c-0.8,0-1.6,0.2-2.3,0.5c-0.7,0.4-1.2,0.9-1.6,1.5c-0.4,0.6-0.6,1.3-0.6,2.1V19h-1.4V5h1.4v2.4
			c0.4-0.8,1-1.5,1.8-2c0.8-0.5,1.8-0.7,2.9-0.7C154.6,4.7,155.5,4.9,156.3,5.4z"/>
		<path class="st0" d="M174.1,0.1V19h-1.4v-2.8c-0.6,1-1.3,1.8-2.2,2.3c-0.9,0.6-2,0.8-3.2,0.8c-1.2,0-2.3-0.3-3.2-1
			c-1-0.7-1.8-1.5-2.3-2.7c-0.6-1.1-0.9-2.4-0.9-3.7s0.3-2.6,0.9-3.7s1.4-2,2.3-2.7c1-0.6,2.1-1,3.2-1c1.2,0,2.3,0.3,3.2,0.8
			c0.9,0.6,1.7,1.3,2.2,2.3V0.1H174.1z M170.2,17.3c0.8-0.5,1.4-1.2,1.8-2.2c0.4-0.9,0.7-2,0.7-3.2c0-1.2-0.2-2.2-0.7-3.1
			c-0.4-0.9-1.1-1.6-1.8-2.2c-0.8-0.5-1.7-0.8-2.7-0.8c-1,0-1.9,0.3-2.7,0.8C164,7.3,163.4,8,162.9,9c-0.5,0.9-0.7,1.9-0.7,3
			c0,1.1,0.2,2.1,0.7,3.1c0.5,0.9,1.1,1.7,1.9,2.2c0.8,0.5,1.7,0.8,2.7,0.8C168.5,18.1,169.4,17.9,170.2,17.3z"/>
	</g>
</g>
</svg>
